#!OML:ASF F:\VICON\USERDATA\INSTALL\rory3\rory3.ASF
:FULLY-SPECIFIED
:DEGREES
572
root 0.16706 16.538 -0.105311 -156.665 8.14928 181.568
lowerback -13.3329 0.846261 -4.61209
upperback -4.89439 2.43028 -2.63647
thorax 2.26268 1.49641 0.220738
lowerneck -7.51005 -8.89575 -4.27775
upperneck 44.3851 -7.00533 3.24217
head 18.2405 -0.957136 1.84341
rclavicle -2.52457e-014 7.95139e-015
rhumerus -52.1297 13.3714 -99.083
rradius 20.8789
rwrist -9.5466
rhand 14.1333 12.14
rfingers 7.12502
rthumb 39.0352 -13.3699
lclavicle -2.52457e-014 7.95139e-015
lhumerus -49.0417 6.64303 73.9301
lradius 41.2477
lwrist 11.4643
lhand -4.3185 20.6907
lfingers 7.12502
lthumb 21.4481 49.5234
rfemur -22.2157 -13.3929 27.8802
rtibia 53.5574
rfoot 13.4759 -6.9789
rtoes 0.205453
lfemur -43.8558 0.687504 -29.7721
ltibia 42.1878
lfoot -43.4839 26.5994
ltoes 11.8679
573
root 0.167088 16.5406 -0.0989848 -156.664 8.06677 181.494
lowerback -13.343 0.827159 -4.71131
upperback -4.98052 2.42169 -2.55793
thorax 2.17068 1.50067 0.355115
lowerneck -7.39568 -8.93512 -4.35508
upperneck 44.2547 -7.10981 3.32747
head 18.146 -1.00793 1.87586
rclavicle -1.5704e-014 7.23576e-014
rhumerus -52.0103 13.2565 -98.7454
rradius 20.963
rwrist -9.38972
rhand 14.3014 11.4282
rfingers 7.12502
rthumb 39.1936 -14.0361
lclavicle -1.5704e-014 7.23576e-014
lhumerus -49.0834 5.82509 74.5937
lradius 41.8374
lwrist 11.5058
lhand -4.47662 20.2916
lfingers 7.12502
lthumb 21.2962 49.1416
rfemur -22.3856 -13.6413 27.8741
rtibia 53.6613
rfoot 13.8434 -6.93839
rtoes 0.153666
lfemur -43.8939 0.457554 -29.7614
ltibia 42.2187
lfoot -43.4806 26.7409
ltoes 11.7482
574
root 0.162822 16.5379 -0.0982487 -156.75 7.80575 181.614
lowerback -13.3441 0.855039 -4.42395
upperback -4.96713 2.41539 -2.51586
thorax 2.19548 1.49247 0.237757
lowerneck -7.48132 -8.99743 -4.2104
upperneck 44.221 -7.25301 3.29551
head 18.143 -1.04758 1.80695
rclavicle 2.90226e-014 -3.89618e-014
rhumerus -51.7559 13.0444 -98.4899
rradius 20.929
rwrist -9.20225
rhand 13.6909 11.7489
rfingers 7.12502
rthumb 38.618 -13.8795
lclavicle 2.90226e-014 -3.89618e-014
lhumerus -49.0576 4.91307 75.1559
lradius 42.7394
lwrist 11.6129
lhand -4.42809 20.1067
lfingers 7.12502
lthumb 21.3428 48.9514
rfemur -22.2899 -14.0057 28.0466
rtibia 53.6952
rfoot 13.956 -7.39292
rtoes 2.30883
lfemur -43.818 0.530702 -29.6572
ltibia 42.2792
lfoot -43.3157 26.6103
ltoes 11.5314
575
root 0.158168 16.5326 -0.101536 -156.848 7.45341 181.883
lowerback -13.5401 0.871962 -3.90793
upperback -4.81057 2.36448 -2.44185
thorax 2.48411 1.4474 0.0282219
lowerneck -7.66154 -8.97862 -4.0484
upperneck 44.086 -7.34821 3.32819
head 18.1014 -1.0734 1.7634
rclavicle 8.34896e-015 -6.36111e-015
rhumerus -51.2346 12.7747 -98.0999
rradius 20.7963
rwrist -8.84606
rhand 13.3256 11.8294
rfingers 7.12502
rthumb 38.2733 -13.8949
lclavicle 8.34896e-015 -6.36111e-015
lhumerus -48.8319 4.15662 75.6067
lradius 43.3579
lwrist 11.5854
lhand -4.47976 19.7535
lfingers 7.12502
lthumb 21.2932 48.6038
rfemur -22.0787 -14.5249 28.382
rtibia 53.697
rfoot 13.853 -7.7334
rtoes 4.01387
lfemur -43.7072 0.71815 -29.442
ltibia 42.3382
lfoot -42.8893 26.567
ltoes 11.0963
576
root 0.160907 16.5314 -0.0961917 -156.994 7.36772 181.79
lowerback -13.6229 0.753653 -4.1207
upperback -4.58046 2.20837 -2.23755
thorax 2.75729 1.34993 0.343529
lowerneck -8.18518 -8.88585 -4.21806
upperneck 44.0172 -7.29474 3.39424
head 18.2131 -1.10193 1.81063
rclavicle -2.98177e-015 2.06736e-014
rhumerus -50.5518 12.9301 -97.4688
rradius 20.6968
rwrist -8.47864
rhand 12.9187 11.9637
rfingers 7.12502
rthumb 37.8891 -13.8656
lclavicle -2.98177e-015 2.06736e-014
lhumerus -48.463 4.15079 76.0089
lradius 43.718
lwrist 11.0552
lhand -4.15251 19.4653
lfingers 7.12502
lthumb 21.6075 48.2798
rfemur -21.9958 -14.8081 28.352
rtibia 53.754
rfoot 13.7555 -7.87722
rtoes 3.53282
lfemur -43.5998 0.992008 -29.6332
ltibia 42.3525
lfoot -42.4318 26.6108
ltoes 10.4725
577
root 0.162246 16.5316 -0.0872007 -157.262 7.39009 181.581
lowerback -13.3109 0.588268 -4.64409
upperback -4.15783 1.97856 -1.98661
thorax 3.01083 1.1985 0.861589
lowerneck -9.74913 -8.76551 -4.12743
upperneck 44.1811 -7.24401 3.20419
head 18.7196 -1.13495 1.66836
rclavicle 4.6118e-014 -4.05521e-014
rhumerus -49.325 13.4419 -96.8227
rradius 20.8559
rwrist -8.73018
rhand 12.6227 12.0738
rfingers 7.12502
rthumb 37.6095 -13.8306
lclavicle 4.6118e-014 -4.05521e-014
lhumerus -47.7355 4.50526 76.3408
lradius 44.3809
lwrist 10.004
lhand -3.3533 19.3953
lfingers 7.12502
lthumb 22.3749 48.1196
rfemur -21.8596 -14.9799 28.1302
rtibia 53.8553
rfoot 13.7179 -8.14181
rtoes 3.76401
lfemur -43.3306 0.943384 -29.8334
ltibia 42.3192
lfoot -42.6289 26.4572
ltoes 11.3283
578
root 0.155951 16.5282 -0.0903311 -157.492 7.19088 181.519
lowerback -13.6053 0.570422 -4.42855
upperback -4.03021 1.94931 -2.06745
thorax 3.31595 1.17384 0.661793
lowerneck -9.51339 -8.77544 -3.97809
upperneck 44.0939 -7.32291 3.2786
head 18.5967 -1.12949 1.66697
rclavicle -2.38542e-014 4.77083e-014
rhumerus -48.8147 12.8904 -96.3598
rradius 21.1633
rwrist -8.96111
rhand 13.0805 11.3596
rfingers 7.12502
rthumb 38.0419 -14.4282
lclavicle -2.38542e-014 4.77083e-014
lhumerus -47.888 3.6941 76.6019
lradius 45.678
lwrist 9.32982
lhand -2.78935 20.0586
lfingers 7.12502
lthumb 22.9161 48.7167
rfemur -21.6441 -15.4308 28.0662
rtibia 53.9422
rfoot 13.6663 -8.4433
rtoes 4.63958
lfemur -42.99 0.764281 -29.8798
ltibia 42.2563
lfoot -42.7033 26.3924
ltoes 12.1216
579
root 0.152913 16.5257 -0.090702 -157.704 6.91357 181.448
lowerback -13.2637 0.38521 -4.55284
upperback -4.07853 1.6739 -1.78019
thorax 3.07818 1.03885 0.979239
lowerneck -9.57171 -8.6992 -4.2267
upperneck 44.0284 -7.13666 3.20301
head 18.573 -1.11872 1.70117
rclavicle 7.85199e-015 7.95139e-016
rhumerus -48.7052 13.3681 -96.0576
rradius 21.5556
rwrist -9.53196
rhand 12.9341 10.4132
rfingers 7.12502
rthumb 37.9036 -15.4122
lclavicle 7.85199e-015 7.95139e-016
lhumerus -48.1851 3.53707 77.1217
lradius 46.8062
lwrist 8.73797
lhand -2.11001 21.0908
lfingers 7.12502
lthumb 23.5679 49.6666
rfemur -21.4492 -15.8889 28.0332
rtibia 53.972
rfoot 13.5175 -8.89674
rtoes 6.01774
lfemur -42.6915 0.584222 -29.9038
ltibia 42.2159
lfoot -42.687 26.3178
ltoes 12.4929
580
root 0.155949 16.523 -0.0755909 -157.912 6.81423 181.294
lowerback -13.0608 0.344697 -4.72023
upperback -4.02348 1.61662 -1.71817
thorax 3.02155 1.00585 1.12514
lowerneck -9.52909 -8.65107 -4.23649
upperneck 43.7953 -7.15316 3.2698
head 18.4188 -1.14115 1.71852
rclavicle -9.0447e-015 -1.59028e-015
rhumerus -48.4515 13.1824 -95.6625
rradius 21.8908
rwrist -9.52543
rhand 12.2252 9.8361
rfingers 7.12502
rthumb 37.2337 -16.1676
lclavicle -9.0447e-015 -1.59028e-015
lhumerus -47.9985 3.20739 77.376
lradius 47.1447
lwrist 7.97465
lhand -1.55659 20.8152
lfingers 7.12502
lthumb 24.0986 49.3219
rfemur -21.3113 -16.082 27.9187
rtibia 54.0101
rfoot 13.2506 -9.53568
rtoes 8.30155
lfemur -42.5136 0.446271 -30.0044
ltibia 42.1743
lfoot -42.6238 26.4116
ltoes 12.4905
581
root 0.157265 16.5235 -0.0698363 -158.032 6.47214 181.435
lowerback -12.9638 0.292593 -4.48749
upperback -3.9833 1.49497 -1.58689
thorax 3.01928 0.939866 1.11155
lowerneck -9.55467 -8.65911 -4.25799
upperneck 43.7465 -7.17723 3.26429
head 18.3976 -1.16085 1.71143
rclavicle -1.6201e-014 2.38542e-014
rhumerus -48.1595 12.9466 -95.2289
rradius 22.2024
rwrist -9.48808
rhand 11.9402 9.0869
rfingers 7.12502
rthumb 36.9641 -16.9868
lclavicle -1.6201e-014 2.38542e-014
lhumerus -48.0147 2.80312 77.6015
lradius 47.7334
lwrist 7.27436
lhand -1.30046 20.165
lfingers 7.12502
lthumb 24.3442 48.6389
rfemur -21.169 -16.5574 28.2141
rtibia 54.0072
rfoot 13.2304 -9.63495
rtoes 8.06953
lfemur -42.4184 0.468549 -29.8229
ltibia 42.1839
lfoot -42.2259 26.6123
ltoes 12.1428
